HIERARCHY
ROOT hip
{
	OFFSET 0.000000 0.000000 0.000000 
	CHANNELS 6 Xposition Yposition Zposition Xrotation Zrotation Yrotation
	JOINT abdomen
	{
		OFFSET 0.000000 3.402643 0.000000 
		CHANNELS 3 Xrotation Zrotation Yrotation
		JOINT chest
		{
			OFFSET 0.000000 8.438565 -0.680529 
			CHANNELS 3 Xrotation Zrotation Yrotation
			JOINT neck
			{
				OFFSET 0.000000 10.207942 -0.272212 
				CHANNELS 3 Xrotation Zrotation Yrotation
				JOINT head
				{
					OFFSET 0.000000 3.130431 0.000000 
					CHANNELS 3 Xrotation Zrotation Yrotation
					End Site
					{
						OFFSET 0.000000 3.130435 0.000000 
					}
				}
			}
			JOINT lCollar
			{
				OFFSET 3.470700 6.669187 -0.816635 
				CHANNELS 3 Yrotation Zrotation Xrotation
				JOINT lShldr
				{
					OFFSET 3.198488 0.000000 0.000000 
					CHANNELS 3 Zrotation Yrotation Xrotation
					JOINT lForeArm
					{
						OFFSET 10.139888 0.000000 0.000000 
						CHANNELS 3 Yrotation Zrotation Xrotation
						JOINT lHand
						{
							OFFSET 8.370511 0.000000 0.000000 
							CHANNELS 3 Zrotation Yrotation Xrotation
							End Site
							{
								OFFSET 4.083176 0.000000 0.000000 
							}
						}
					}
				}
			}
			JOINT rCollar
			{
				OFFSET -3.470700 6.669187 -0.816635 
				CHANNELS 3 Yrotation Zrotation Xrotation
				JOINT rShldr
				{
					OFFSET -3.198488 0.000000 0.000000 
					CHANNELS 3 Zrotation Yrotation Xrotation
					JOINT rForeArm
					{
						OFFSET -10.139888 0.000000 0.000000 
						CHANNELS 3 Yrotation Zrotation Xrotation
						JOINT rHand
						{
							OFFSET -8.370511 0.000000 0.000000 
							CHANNELS 3 Zrotation Yrotation Xrotation
							End Site
							{
								OFFSET -4.083176 0.000000 0.000000 
							}
						}
					}
				}
			}
		}
	}
	JOINT lThigh
	{
		OFFSET 5.308129 -1.633274 1.361059 
		CHANNELS 3 Xrotation Zrotation Yrotation
		JOINT lShin
		{
			OFFSET -2.041588 -20.007561 0.000000 
			CHANNELS 3 Xrotation Zrotation Yrotation
			JOINT lFoot
			{
				OFFSET 0.000000 -19.190928 -1.224953 
				CHANNELS 3 Xrotation Yrotation Zrotation
				End Site
				{
					OFFSET 0.000000 -2.449906 4.627600 
				}
			}
		}
	}
	JOINT rThigh
	{
		OFFSET -5.308129 -1.633274 1.361059 
		CHANNELS 3 Xrotation Zrotation Yrotation
		JOINT rShin
		{
			OFFSET 2.041588 -20.007561 0.000000 
			CHANNELS 3 Xrotation Zrotation Yrotation
			JOINT rFoot
			{
				OFFSET 0.000000 -19.190928 -1.224953 
				CHANNELS 3 Xrotation Yrotation Zrotation
				End Site
				{
					OFFSET 0.000000 -2.449906 4.627600 
				}
			}
		}
	}
}
MOTION
Frames: 6
Frame Time: 0.033333
4.267179 48.186893 -17.284002 -1.441945 -5.398691 108.435875 34.381920 -0.330078 -2.469166 -20.839844 0.000000 0.000000 25.905306 -1.893851 27.676659 -2.520832 -1.255077 0.218355 -4.754609 -0.109182 -0.002653 -79.964355 -32.737225 7.598762 -39.478024 -3.325923 -0.495309 -7.944854 -2.055230 -6.569221 4.754609 0.109182 -0.002672 88.007927 23.061764 10.986249 47.892113 7.152653 10.072239 2.331812 4.354270 5.151121 -27.653711 7.518664 5.039270 48.719948 -6.809424 -5.648880 -22.166386 -9.123859 2.100321 -18.132065 -21.555006 -20.427809 46.040611 16.746481 0.397096 -25.207294 13.811824 -0.710528 
4.243834 47.776691 -17.633795 -1.456260 -7.029002 108.723030 34.438053 -0.355494 -2.695228 -20.839844 0.000000 0.000000 25.753246 -2.119794 27.283834 -2.520832 -1.255077 0.218355 -4.754609 -0.109182 -0.002653 -75.593323 -27.783806 9.170945 -50.446178 -10.818210 6.016014 -0.700621 -2.804531 -4.442937 4.754609 0.109182 -0.002672 87.738365 12.803987 6.915998 56.570637 9.119820 19.352472 1.869125 6.968702 19.565203 -31.464546 9.843784 7.175364 53.609440 -8.894216 -7.995437 -20.281155 -12.852955 -1.838684 -20.897058 -23.189625 -20.069885 48.646595 16.521236 1.443580 -26.300468 13.495289 -0.282466 
4.211843 47.357342 -18.040447 -1.431648 -8.473954 108.745300 34.589798 -0.299950 -2.972297 -20.839844 0.000000 0.000000 25.584185 -2.471288 27.043480 -2.520832 -1.255077 0.218355 -4.754609 -0.109182 -0.002653 -71.077866 -22.329054 9.348639 -61.214409 -18.056181 9.015137 4.617950 -0.841312 -1.507852 4.754609 0.109182 -0.002672 87.293045 4.175155 2.961470 61.571690 10.239233 24.073118 3.747247 9.101506 27.564066 -35.223541 12.919582 8.823795 58.554836 -10.413274 -11.168144 -18.000837 -16.064928 -10.313455 -23.395948 -24.906267 -19.810240 51.105881 16.306084 2.566936 -27.241941 13.489202 0.152111 
4.182394 47.024822 -18.475536 -1.317381 -9.626410 108.490349 34.827587 -0.158083 -3.261562 -20.839844 0.000000 0.000000 25.351156 -2.987350 26.980988 -2.520832 -1.255077 0.218355 -4.754609 -0.109182 -0.002653 -68.524757 -16.804810 8.665158 -69.266891 -22.424139 9.324034 5.951036 0.305699 1.070292 4.754609 0.109182 -0.002672 87.027397 -2.887071 -0.685757 63.635963 10.582147 24.542805 6.519366 9.674160 29.036053 -38.404579 16.042818 9.460445 61.864964 -10.746117 -13.436001 -14.841556 -17.495266 -20.385027 -25.319288 -26.497103 -19.669060 52.928555 16.113016 3.528106 -27.833431 13.640683 0.595257 
4.141783 46.894844 -18.931938 -1.132122 -10.466752 108.084900 35.121147 0.150349 -3.562181 -20.839844 0.000000 0.000000 25.085556 -3.676186 27.064657 -2.520832 -1.255077 0.218355 -4.754609 -0.109182 -0.002653 -67.935196 -12.241493 7.861560 -73.256935 -24.205687 8.889838 5.467626 0.559065 2.155756 4.754609 0.109182 -0.002672 86.912514 -7.784661 -3.987417 62.689560 9.693469 22.806372 7.919796 8.600204 26.816332 -40.531090 18.736341 9.148553 62.838848 -9.887152 -13.144794 -11.697971 -15.990767 -25.720955 -26.549517 -27.590525 -19.447275 53.554066 15.771491 4.039505 -27.888639 13.582091 1.149794 
4.078322 46.904991 -19.406113 -0.945114 -11.004399 107.698502 35.393444 0.682148 -3.840398 -20.839844 0.000000 0.000000 24.819155 -4.536900 27.266417 -2.520832 -1.255077 0.218355 -4.754609 -0.109182 -0.002653 -68.353767 -8.823897 7.110359 -74.745590 -24.688227 8.013378 5.089593 1.107594 1.647959 4.754609 0.109182 -0.002672 86.569557 -10.816367 -7.076573 59.488701 7.696071 20.938402 7.265122 7.595766 24.564213 -41.997421 20.827105 8.132468 63.810844 -8.061113 -10.677526 -14.278028 -10.938293 -21.797544 -27.187468 -28.368795 -19.282286 53.368153 15.409933 4.220313 -27.567297 13.426186 1.790981 
